# xmcd CD database file
#
# Track frame offsets:
#	150
#	12128
#	25825
#	44524
#	72181
#	85195
#	104829
#	121230
#	135116
#	159872
#	172010
#	180169
#	190851
#	203964
#	217140
#
# Disc length: 3113 seconds
#
# Revision: 0
# Processed by: cddbd v1.4PL0 Copyright (c) Steve Scherf et al.
# Submitted via: CDex 1.50Beta7
#
DISCID=c60c270f
DTITLE=Various Artist - Ryman Country Homecoming 2
DYEAR=1900
DGENRE=Country
TTITLE0=Larry Gatlin/Faded Love
TTITLE1=Bobby Bare/Marie Lavaux
TTITLE2=Gene Watson/Farewell Party
TTITLE3=Janie Fricke/Jolene-Coal Miners Daughter-Stand By Your Man
TTITLE4=Willie Neson/Always On My Mind
TTITLE5=Lorrie Morgan/Crazy
TTITLE6=Ferlin Husky/On The Wings Of A Dove
TTITLE7=Dan Seals/Bop
TTITLE8=Barbara Fairchild and Chet Atkins/Vincent
TTITLE9=Geezinslaw Brothers/Bad Rock 'N Roll
TTITLE10=Waylon Jennings/Bob Wills Is Still The King
TTITLE11=Willie Nelson/Blue Eyes Crying In The Rain
TTITLE12=Glen Campbell/Rhinestone Cowboy
TTITLE13=Porter Wagoner/A Satisfied Mind
TTITLE14=T. Graham Brown/Wine Into Water 
EXTD=
EXTT0=
EXTT1=
EXTT2=
EXTT3=
EXTT4=
EXTT5=
EXTT6=
EXTT7=
EXTT8=
EXTT9=
EXTT10=
EXTT11=
EXTT12=
EXTT13=
EXTT14=
PLAYORDER=
